/* XPM */
static char *result[] = {
/* columns rows colors chars-per-pixel */
"32 32 7 1 ",
"  c #58240C",
". c #863D1C",
"X c #B86F50",
"o c #FFA300",
"O c #FFC950",
"+ c #FFE09B",
"@ c None",
/* pixels */
"@@@@@@@@@@@@@@@@@@@@@@@@@@@@@@@@",
"@@@@@@@@@@@@.......@@@@@@@@@@@@@",
"@@@@@@@@@@..OOOOOOO..@@@@@@@@@@@",
"@@@@@@@@@.XXoooooo+O+.@@@@@@@@@@",
"@@@@@@@@.XoooO    XoO+.@@@@@@@@@",
"@@@@@@@.XoooO @@@@ XoO+.@@@@@@@@",
"@@@@@@.XoooO @@@@@@ XoO+.@@@@@@@",
"@@@@@@.XooO @@@@@@@@ XOO.@@@@@@@",
"@@@@@.XoooO @@@@@@@@ XoOO.@@@@@@",
"@@@@@.XoooO @@@@@@@@ XoOO.@@@@@@",
"@@@@@.XoooO @@@@@@@@ XoOO.@@@@@@",
"@@@@@ XoooO @@@@@@@@ XoOO @@@@@@",
"@@@@@ XoooO @@@@@@@@ XoOO @@@@@@",
"@@@@@@ XoooO @@@@@@ XoOO @@@@@@@",
"@@@@@@ XooooO @@@@ XooOO @@@@@@@",
"@@@@@@@ XooooO    XoOOO @@@@@@@@",
"@@@@@@@@ XoooooooooOOO @@@@@@@@@",
"@@@@@@@@@ XXooooooOO  @@@@@@@@@@",
"@@@@@@@@@@  XooooOO @@@@@@@@@@@@",
"@@@@@@@@@@@@ XoooOO @@@@@@@@@@@@",
"@@@@@@@@@@@@ XoooOO @@@@@@@@@@@@",
"@@@@@@@@@@@@ XoooOO @@@@@@@@@@@@",
"@@@@@@@@@@   XoooOO @@@@@@@@@@@@",
"@@@@@@@@@ XXXXoooOO @@@@@@@@@@@@",
"@@@@@@@@@ XXoooooOO @@@@@@@@@@@@",
"@@@@@@@@@ XooooooOO @@@@@@@@@@@@",
"@@@@@@@@@@   XoooOO @@@@@@@@@@@@",
"@@@@@@@@@ XXXXooOO @@@@@@@@@@@@@",
"@@@@@@@@@ XXoooOO @@@@@@@@@@@@@@",
"@@@@@@@@@ XoooOO @@@@@@@@@@@@@@@",
"@@@@@@@@@@      @@@@@@@@@@@@@@@@",
"@@@@@@@@@@@@@@@@@@@@@@@@@@@@@@@@"
};
