/* XPM */
static char *bd05e9db8a944b928ab40229329549652Glr2pLR0E7TPo8g[] = {
/* columns rows colors chars-per-pixel */
"32 32 90 1 ",
"  c None",
". c #733E34",
"X c #793F31",
"o c #7C4333",
"O c #754935",
"+ c #784A35",
"@ c #764239",
"# c #7C443A",
"$ c #7C4B3C",
"% c #745539",
"& c #7B553D",
"* c #7B593B",
"= c #5D5E5E",
"- c #6E4F4B",
"; c #734840",
": c #6B524E",
"> c #775146",
", c #74544D",
"< c #7D5449",
"1 c #785F48",
"2 c #675654",
"3 c #605F5F",
"4 c #745E52",
"5 c #7D5F51",
"6 c #6E604F",
"7 c #666257",
"8 c #6B665A",
"9 c #746351",
"0 c #7C6455",
"q c #4F6C6E",
"w c #576768",
"e c #5D716D",
"r c #507272",
"t c #616463",
"y c #626962",
"u c #814433",
"i c #81473C",
"p c #844A3E",
"a c #894C3F",
"s c #83543F",
"d c #84593F",
"f c #86603F",
"g c #8C4F40",
"h c #855341",
"j c #8E5141",
"k c #865B40",
"l c #8A5B41",
"z c #925343",
"x c #876241",
"c c #8A6541",
"v c #8D6944",
"b c #876849",
"n c #8E6F4B",
"m c #906742",
"M c #936C43",
"N c #906D48",
"B c #8E724F",
"V c #977044",
"C c #9B7344",
"Z c #9B794E",
"A c #816455",
"S c #806758",
"D c #846A59",
"F c #896E5D",
"G c #8C725F",
"H c #947752",
"J c #947953",
"K c #9A7C55",
"L c #947C59",
"P c #917661",
"I c #957A63",
"U c #9E825A",
"Y c #A08357",
"T c #A1845A",
"R c #A48B5E",
"E c #9C8067",
"W c #9F8860",
"Q c #A58D62",
"! c #AA8D62",
"~ c #AC9265",
"^ c #AE9769",
"/ c #B19867",
"( c #B39769",
") c #B59B6A",
"_ c #BB9C6E",
"` c #BF9F70",
"' c #BBA06F",
"] c #BDA371",
"[ c #C2A272",
"{ c #C4AD76",
/* pixels */
"             #hVCva             ",
"            .ghCCvaa  IPGG      ",
"           g;g$CCvi$aGPDDE0     ",
"         .gggghVCm##pGG0DI0     ",
"        X@zg#zhCCf$opDIPII      ",
"       @iXg;#psCCMpp#>FFD0      ",
"      @#i#ip#p$CCfzapp0AD4      ",
"     @a##@p#@i&CCMaapa@AF5#     ",
"    .gi#gg@gg@sCCviig#ggh0g.    ",
"   ##iggg#zg#gpCCmpigzigg;gg;   ",
"  #a@gggi@gg#skCCmhipg#i#i##gg  ",
" @##@gg@i@ggamMxffVspp####g.#i# ",
" ##i#ig.#@zlmCNTRKfCkg.gigi;p## ",
" ###.ggXiilCMv~~~~YMClg#XjzXg#@ ",
".z##gg#;ghZcn((MmY)TcChgggzpi@i.",
".jhg#gXghVx!)ZCMMVC/QvVkgggpjg;.",
" #aj#pgkCfR)'f9r7ecT)QxCdapigpi ",
"#pii#jmVM~[[[f9w6yxU[[!NCmh@iipp",
"ip#p$mCN~)'''U1898n/]_)!MCc###pg",
"##ipmVN~{{{{{{/UKR'{{{{{~NCc###a",
"#p$MMv![]]]])Uvfvfv/]]]][!vMM#a#",
"iaMMn([[[[[KVCVVVMCVK][[[`/nVMpj",
"$VMH!`[[[[RCV%@OOoO*C![[[[[!HMVs",
"*Mb_!```_`KM&uuXXXoOmK_````Q_bM*",
"   ()[[[[[Kv&o=q2w-OxL[[[[[))   ",
"   W/``]]]Hc%ott:t:+xH`]``]^W   ",
"   /^{{{{{Jc%o3t-t:OcJ{{]{{^^   ",
"   QQ]]]]]Jv*h;XXXo+xH]]]]]QQ   ",
"   L]~[[[[Jv&<-XXXXOxJ[[[[~`L   ",
"   L_~[[[[Jc*oXXoXX+xL[[[[~`L   ",
"    QQ[][]Hx*ouuuuuOxH]]][QW    ",
"    ~Q{{{{Bx*uuuuuuOvB{{{{~Q    "
};