/* XPM */
static char *result[] = {
/* columns rows colors chars-per-pixel */
"32 32 108 2 ",
"   c #A66547",
".  c #AC6445",
"X  c #AA6449",
"o  c #AD6A4D",
"O  c #B26747",
"+  c #B06842",
"@  c #B16749",
"#  c #B56D4D",
"$  c #B96E4E",
"%  c #B6704E",
"&  c #B9704F",
"*  c #A76F54",
"=  c #AA6E55",
"-  c #A76F58",
";  c #AA6D59",
":  c #B66F52",
">  c #B96E51",
",  c #B06F59",
"<  c #A67056",
"1  c #AE7256",
"2  c #A7725C",
"3  c #AC745C",
"4  c #B67151",
"5  c #BB7353",
"6  c #B47856",
"7  c #BE7956",
"8  c #B4745B",
"9  c #BB7459",
"0  c #B37A5D",
"q  c #BD7B5A",
"w  c #AC7461",
"e  c #AE7860",
"r  c #B37761",
"t  c #B37A62",
"y  c #CF7344",
"u  c #CF7448",
"i  c #D57643",
"p  c #DA7643",
"a  c #D77842",
"s  c #D0774D",
"d  c #D2794C",
"f  c #C27D54",
"g  c #CD7E53",
"h  c #C37C5B",
"j  c #D27C51",
"k  c #B78059",
"l  c #BC825D",
"z  c #B78263",
"x  c #BC8564",
"c  c #BE8964",
"v  c #BD8569",
"b  c #BE8C69",
"n  c #BD8672",
"m  c #BD8D76",
"M  c #DA824E",
"N  c #C58156",
"B  c #C3825C",
"V  c #CC8B5E",
"C  c #D78756",
"Z  c #DC8C57",
"A  c #DD8C5B",
"S  c #C28466",
"D  c #C38C65",
"F  c #CA8D65",
"G  c #C2856A",
"H  c #C48A6A",
"J  c #CA8D6B",
"K  c #C59166",
"L  c #CC9365",
"P  c #C5916C",
"I  c #CC936A",
"U  c #D19465",
"Y  c #D59C67",
"T  c #D1926D",
"R  c #D3996C",
"E  c #C48E72",
"W  c #C88A71",
"Q  c #C49371",
"!  c #CB9273",
"~  c #CC9B75",
"^  c #C5947A",
"/  c #C9977B",
"(  c #CD9B7D",
")  c #D39B73",
"_  c #DB9C70",
"`  c #D19C7C",
"'  c #DFA671",
"]  c #E3A66F",
"[  c #E0A86F",
"{  c #E4A672",
"}  c #E8A673",
"|  c #E3A872",
" . c #E4A678",
".. c #C79C82",
"X. c #CB9D83",
"o. c #CEA082",
"O. c #CDA089",
"+. c #DCAB8A",
"@. c #E7AD87",
"#. c #E6B186",
"$. c #E6B48E",
"%. c #E9B48A",
"&. c #E6B796",
"*. c #E9B695",
"=. c #E6B995",
"-. c #EAB897",
";. c #E9B799",
":. c #E7B998",
/* pixels */
"z 9 G X.;.&.^ v S G G S G 9 1 G G v G G } | | x G G G N l J J J ",
"z n H Q ~ X.Q x S H t t b 7 1 G D c x D I J I G S z 1 d 8 G G G ",
"/ %.! I | S I { } J 3 q J q 8 T  .} ] | J G G J I U M j t S G F ",
"( { J G S G G G G G G J | J c { G X.$.{ J G J { | { | J G S G K ",
"+./ I D J K c G S G G R { I P ~ X.Q T } J H L { { R x J 3 1 * t ",
"$.;.! I { | D H J J I { ] | ) ;.;.I A } J D { | { I J G - $ 4 e ",
"I :.h O d G G x { | { { } %.=.;.&.! { G G G G G F } ' J < 4 $ % ",
"F { { l 4 5 t x } A M Z ] ) ( =.! P J G G 0 d d M V | | l $ > $ ",
"D } R b B : w t K V N V L J E O.G G G G v 3 # i i 7 D F 9 $   # ",
") { @.) ] $ 3 0 i | {  .J v G J S G G S G 0 5 d d o $ $ 4 4 y o ",
"G v ] x G : > # > : 3 J | M B ' G G G G S G v G H w 4 % . y $ $ ",
"S G b D L D q x ..h , r x 6 6 H S 0 - - G G G G S z D F D L 1 , ",
"x G G D I I x x ..h > 5 3 3 - 3 2 3 1 > 1 t H G E Q ' { R I 3 0 ",
"G G v G ! &.n 4 : > $ 4 > b 3 $ > 1 G > & < G G X.! | | l $ $ D ",
"I S q 9 q h q $ $ : % $ $ G w : > 5 7 : ;.X.J { } | | #.! d S J ",
"J v r 4 9 w x B $ 3 3 3 $ 1 ; 1 w m ( D ( H I |  .Y ~ / 8 o G v ",
"I G G 8 q G I L h G G G $ 9 8 H S X.#.{ J H { { { ) -.S $ 5 G G ",
"G S 6 3 x G H { } F S n $ G G G x H | G G G S G X.X.S 4 $ $ & O ",
"t * 9 3 W J D c x H G G 2 G G S v D H G G G S = v v - # O @ O   ",
"3 : & 3 H L G v 3 G S G 3 c S G v G G G G v 8 $ o X   # + @ . o ",
"1 $ > 3 G G h w > G v G $ | K G G v G G S 3 : : @ i i > 4 > & $ ",
"9 4 $ 9 9 9 9 8 G h r J | | D G D I { { J G G $ > : $ G 8 $ > 4 ",
"1 w 3 3 r $ - 3 - > 3 G 0 k c D H _ | | I c 1 $ 1 3 w o.v r > & ",
"3 G ! W G f t z 5 4 r H $ $ l ' | | ] { | J & 6 0 G v &.^ G & 4 ",
"S G =.m G G K K G 9 $ & > $ 4 > # > h ] J 3 9 G G S G v G G > 3 ",
"! ;.( J G G H H G S 8 $ > : $ $ $ > f h 9 9 9 G X.X.G G 3 7 > 3 ",
"^ ~ v 8 t H G G G H q S % $ % $ $ > > & $ 4 h m ( ^ G t 1 5 - 0 ",
"~ [ A M C G G G x ' | ' h h 7 & $ f h 7 h f F ;.^ G G 5 & q J J ",
"X p | ] { S S 3 > i F | { ] J $ : F { G { { | S G G G 9 $ h { { ",
"; p ] } ] G G 3 . i D } ] ] D 4 > q B G b x H K c G S % - z | J ",
"r d { { | J H 0 a M U ] } ' I 5 $ $ 5 v G G J { c G S d 0 J ] D ",
"S S | } { { f i i { { { G G G G > > 7 G 9 X M } N i p i i p a 3 "
};
