/* XPM */
static char *result[] = {
/* columns rows colors chars-per-pixel */
"32 32 28 1 ",
"  c #2E1E22",
". c #3A3A3A",
"X c #473D3C",
"o c #534721",
"O c #505050",
"+ c #685958",
"@ c gray38",
"# c gray49",
"$ c #971E2A",
"% c #964F00",
"& c #CB3044",
"* c #9D704C",
"= c #877A77",
"- c #FF4460",
"; c #D7906E",
": c #928A8C",
"> c #B0A39F",
", c #A7A7A8",
"< c #B1ADAF",
"1 c #EEBE93",
"2 c #FFE1AF",
"3 c #D4D4D7",
"4 c gray85",
"5 c #D9D9DD",
"6 c #DFDDDF",
"7 c #E6E6E8",
"8 c white",
"9 c None",
/* pixels */
"999999XXXX9999999999999999999999",
"99999X===+X99XXXXXXX999999999999",
"9999X=>===+XX++===++XX9999999999",
"9999X>>>=+X+=>=====>=+X999999999",
"999X+=>=+X+=>=======>=+X99999999",
"999X===+X+==>>=====>>+++X9999999",
"99X+===+X==+=>>>>>=====+X9999999",
"99X===+X+==++======+====+X999999",
"99X===+X+==+1+======++==+X999999",
"99X===+X==+122++======+++X999999",
"99X===+X==122222++======+XX99999",
"99X+==+o=>12222222++======+X9999",
"999X+=o;=>1222222222221++;o99999",
"999X++o;==1ooo22222ooo1=+;o99999",
"9999X++o+=o4 5222225 4o=+o999999",
"9999X=+X+=o8 :22222: 8o=+X999999",
"9999X=+XX+;1%%22222%%1;+X9999999",
"999X=+X99Xo;122222221;oX99999999",
"99X=+X99,3.o*;11111;*o.3,9999999",
"999XX99,377.ooooooooo.773,999999",
"999999.O773$.<O111O<.$377O.99999",
"999999o*@@,7$&6#1#6&$7,@@*o99999",
"999999o11*,77$&.O.&$77,*11o99999",
"99999o*2;o,3777$&$7773,o;2*o9999",
"99999o22*o.,333&-&333,.o*22o9999",
"99999o21o.OO@@O@-@O@@OO.o12o9999",
"999999oo99.@@O@###@O@@.99oo99999",
"99999999999..O@###@O..9999999999",
"99999999999o;.......;o9999999999",
"99999999999.68<.9.<86.9999999999",
"99999999999.@@O.9.O@@.9999999999",
"999999999999...999...99999999999"
};
