/* XPM */
static char *result[] = {
/* columns rows colors chars-per-pixel */
"32 32 25 1 ",
"  c #2E1E22",
". c #3A3A3A",
"X c #473D3C",
"o c #534721",
"O c #505050",
"+ c #685958",
"@ c gray38",
"# c gray49",
"$ c #971E2A",
"% c #964F00",
"& c #CB3044",
"* c #9D704C",
"= c #877A77",
"- c #FF4460",
"; c #D7906E",
": c #928A8C",
"> c #B0A39F",
", c #B1ADAF",
"< c #EEBE93",
"1 c #FFE1AF",
"2 c gray85",
"3 c #D9D9DD",
"4 c #DFDDDF",
"5 c white",
"6 c None",
/* pixels */
"66666666666666666666666666666666",
"666666XXXX6666666666666666666666",
"66666X===+X66XXXXXXX666666666666",
"6666X=>===+XX++===++XX6666666666",
"6666X>>>=+X+=>=====>=+X666666666",
"666X+=>=+X+=>=======>=+X66666666",
"666X===+X+==>>=====>>+++X6666666",
"666X===+X==+=>>>>>=====+X6666666",
"666X==+X+==++======+====+X666666",
"666X==+X+==+<+======++==+X666666",
"666X==+X==+<11++======+++X666666",
"666X+=+X==<11111++======+XX66666",
"666X+++o=><1111111++======+X6666",
"6666X+o;=><11111111111<++;o66666",
"6666X+o;==<ooo11111ooo<=+;o66666",
"66666X+o+=o2 3111113 2o=+o666666",
"66666X=X+=o5 :11111: 5o=+X666666",
"6666X+=+X+;<%%11111%%<;+X6666666",
"6666X=+X6Xo;<1111111<;oX66666666",
"666X=+X6.O.o*;<<<<<;*o.O.6666666",
"6666XX6.O@O.ooooooooo.@@O.666666",
"6666666O@#@$.,O...O,.$@@@,.66666",
"666666.@54O@$&4O@O4&$@.O,O*o6666",
"666666.4##.@@$&.O.&$@@...**o6666",
"666666.@11.O@@@$&$@@@O.66oo66666",
"666666o<11o....-&$.....666666666",
"666666o*<;oO@@O-@#O#@OO.66666666",
"6666666ooo.@@O@###O##@.666666666",
"66666666666..@####O...6666666666",
"66666666666.,.....;<;*6666666666",
"666666666666...66.455.6666666666",
"66666666666666666.O@@.6666666666"
};
