/* XPM */
static char *result[] = {
/* columns rows colors chars-per-pixel */
"32 32 25 1 ",
"  c #2E1E22",
". c #3A3A3A",
"X c #473D3C",
"o c #534721",
"O c #505050",
"+ c #685958",
"@ c gray38",
"# c gray49",
"$ c #971E2A",
"% c #964F00",
"& c #CB3044",
"* c #9D704C",
"= c #877A77",
"- c #FF4460",
"; c #D7906E",
": c #928A8C",
"> c #B0A39F",
", c #B1ADAF",
"< c #EEBE93",
"1 c #FFE1AF",
"2 c gray85",
"3 c #D9D9DD",
"4 c #DFDDDF",
"5 c white",
"6 c None",
/* pixels */
"66666666666666666666666666666666",
"666666XXXX6666666666666666666666",
"66666X===+X66XXXXXXX666666666666",
"6666X=>===+XX++===++XX6666666666",
"666X+>>>=+X+=>=====>=+X666666666",
"666X=>==+X+=>=======>=+X66666666",
"66X+===+X+==>>=====>>+++X6666666",
"66X====+X==+=>>>>>=====+X6666666",
"66X===+X+==++======+====+X666666",
"66X===+X+==+<+======++==+X666666",
"66X===+X==+<11++======+++X666666",
"66X===+X==<11111++======+XX66666",
"66X+==+X=><1111111++======+X6666",
"66X+=+o;=><11111111111<++;o66666",
"666X++o;==<ooo11111ooo<=+;o66666",
"666X+++o+=o2 3111113 2o=+o666666",
"666X=+XX+=o5 :11111: 5o=+X666666",
"666X=+X6X+;<%%11111%%<;+X6666666",
"66X=+X666Xo;<1111111<;oX66666666",
"6X=+X666.O.o*;<<<<<;*o.O.6666666",
"66XX666.O@@.ooooooooo.O@O.666666",
"666666.,@@@$.,O...O,.$@#@O666666",
"66666o*O,O.@$&4O@O4&$@O45@.66666",
"66666o**...@@$&.O.&$@@.##4.66666",
"666666oo66.O@@@$&$@@@O.11@.66666",
"6666666666.....$&-....o11<o66666",
"666666666.OO@#O#@-O@@Oo;<*o66666",
"6666666666.@##O###@O@@.ooo666666",
"66666666666...O####@..6666666666",
"66666666666*;<;.....,.6666666666",
"66666666666.554.66...66666666666",
"66666666666.@@O.6666666666666666"
};
