/* XPM */
static char *result[] = {
/* columns rows colors chars-per-pixel */
"32 32 9 1 ",
"  c #21110D",
". c #082B0C",
"X c #342319",
"o c #171C31",
"O c #503625",
"+ c #114517",
"@ c #347B2C",
"# c #53A03B",
"$ c None",
/* pixels */
"$$$$$$$$$$$$$$$$$$$$$...$$$$$$$$",
"$$$$$$$$$$....$$$$$$.###.$$$$$$$",
"$$$$$$$$$.####.$$..$#####...$$$$",
"$$$$$$$$$.#####..@@.#####.@@.$$$",
"$$$$$$$...######.##.####.@##@.$$",
"$$$$$$.@##@########@#########.$$",
"$$$$...#####################@.$$",
"$$$.##.####################@..$$",
"$$$.##########################.$",
"$$$.#@#########################.",
"$$$$.###########################",
"$$$$.######################@####",
"$$$.@##@####################@###",
"$$$.###@@#############@#####++@@",
"$$.@##@################+@##@##..",
"$$.@@++#################++@@###.",
"$$..++####@##############@@###@+",
"$$$..+####@####@######@###@@@@@@",
"$$$.@@###@######@######@##@@++@@",
"$$.@##@@@@##@###@######@@@##@+++",
"$$.+####@@@##@@@@#####@@@@###@++",
"$$$.@####@####@@#@##@@@+##@##@..",
"$$$ .@+##@####@###@##++@####@@+.",
"$$ .@@@+@@###@+#######.@@+#@@++.",
"$$ .@@@.@@+@@++@##@##@..+@@++++.",
"$$ .@@+.++@@@++@@@@+@@+.+@@.+++.",
"$$ X.++..+@@@@++@@@++++..++....o",
"$$ooo..X.++.@@++.+++++.XX.. oooo",
"$$$ooo OO...+++.X..... XOOOX ooo",
"$$$$oo OOOXX...OOOX ooo XOOO ooo",
"$$$$$oooOXX oo OOX ooooooooooo$$",
"$$$$$$$ooooooooooooooooooooo$$$$"
};
