/* XPM */
static char *result[] = {
/* columns rows colors chars-per-pixel */
"32 32 104 2 ",
"   c #733D3B",
".  c #783C3B",
"X  c #72403B",
"o  c #783B40",
"O  c #5D4654",
"+  c #5D4854",
"@  c #5E485A",
"#  c #614751",
"$  c #624853",
"%  c #6A505B",
"&  c #79555B",
"*  c #6B5D6C",
"=  c #735B61",
"-  c #7E6261",
";  c #6F6975",
":  c #736675",
">  c #726873",
",  c #736778",
"<  c #766F7E",
"1  c #75707E",
"2  c #78707F",
"3  c #843F36",
"4  c #883F36",
"5  c #863F39",
"6  c #883F39",
"7  c #A03F2E",
"8  c #864136",
"9  c #864139",
"0  c #8A4339",
"q  c #9E4132",
"w  c #BF472F",
"e  c #BE492E",
"r  c #A44030",
"t  c #BE4632",
"y  c #BF4831",
"u  c #BF573B",
"i  c #BE593E",
"p  c #C2462E",
"a  c #C0482F",
"s  c #C14731",
"d  c #C04830",
"f  c #C1573D",
"g  c #C0583E",
"h  c #834F42",
"j  c #884F48",
"k  c #865044",
"l  c #8F594D",
"z  c #955347",
"x  c #905B4D",
"c  c #8F5E50",
"v  c #905C51",
"b  c #AA5E47",
"n  c #A75E4A",
"m  c #AA5F4B",
"M  c #BE5841",
"N  c #AC604B",
"B  c #AF6751",
"V  c #A46B57",
"C  c #AF6B56",
"Z  c #AC7056",
"A  c #AC7159",
"S  c #856C6B",
"D  c #886C6B",
"F  c #836C74",
"G  c #817275",
"H  c #8D7371",
"J  c #85787F",
"K  c #977F7D",
"L  c #997E7D",
"P  c #A17A69",
"I  c #A87A6B",
"U  c #C05741",
"Y  c #C46247",
"T  c #C16349",
"R  c #96817B",
"E  c #99807B",
"W  c #BF866A",
"Q  c #BE886C",
"!  c #C38466",
"~  c #C28569",
"^  c #6E6C82",
"/  c #776E81",
"(  c #786F80",
")  c #6F7489",
"_  c #757181",
"`  c #70758B",
"'  c #76798C",
"]  c #7D7B89",
"[  c #6C7592",
"{  c #6C7892",
"}  c #737E90",
"|  c #897F8A",
" . c #758497",
".. c #798093",
"X. c #86808E",
"o. c #988380",
"O. c #8A8490",
"+. c #98959E",
"@. c #9797A3",
"#. c #9995A2",
"$. c #9297AA",
"%. c #9299AA",
"&. c #8B9BB5",
"*. c #8D9ABA",
/* pixels */
"s N ~ #., 8 e e s s y d s d e d s d a d s a d a a Z I &.& r s t ",
"t n ~ #., 9 t e y d p d e e d y y y a t d e y y t A P &.& q d s ",
"d N ~ #.; 4 s w y y y e d a d d a d d d d y d d s A I &.& r t a ",
"  c ~ #.:         X   X                           V P &.&   X   ",
"+ = S %./ @ O O + + + # + $ O O + + + $ + O O O O S | $.* O + O ",
"S S S o.H S S S S S ' G F S D D S S S S S S S S S D D | H S S S ",
"~ ~ ~ ~ ~ ~ W W ~ ! #.I ~ ! ~ ~ ~ ~ ~ ~ ~ ~ ~ ~ I ! ~ ~ ! ~ W ~ ",
"i g f M f f i f B ! #.F z f i U U U g g U U i U f f i f u f T ! ",
"d d d a s a y y N W #.> 3 a a a s d d p d w s e p a d d e d g ~ ",
"s a d d d d a y N W #.> 9 t e a p y a d d a y y a a d d d d g ~ ",
"y s t e d d d d m ~ #.> 9 e y y y y a y y t e y d d d d d y f ~ ",
"a e y d d a d d m ~ #.> 3 y y a d a d d a a s d d d d d d d f ~ ",
"d s s d d d a w m ~ #.> 5 t w p d a d d a d a a p e e s d d U ~ ",
"t e e y y d e e m ~ +., 9 y w w y d y y e a d d d y d p d y M ~ ",
"              X v ~ #.,                                   X j ~ ",
"+ + $ + O + O # = S %.^ + O O O O O O O O O + # + + + O $ + % S ",
"1 1 1 2 1 1 2 2 1 < #.] 2 _ < 2 1 < ) { 2 2 _ < 2 1 1 1 _ _ 2 1 ",
"W ~ ! ~ ~ ~ ~ ~ ~ ~ ~ ~ ~ ~ ~ ~ W W K #.~ ~ W W W ~ ~ ~ ~ ~ W ~ ",
"u g f f f f f f g g M g i f f g T ~ R &.h g f f i f f f i f f f ",
"e e y w y e e y e e y d t a w e f ! K &.  e s e w e s t t w e y ",
"s s a d d s a s y y y p d w d d f ! | %.o e y y d y y d d w w y ",
"a d y d d d e a d y d a a w e t f ~ L &.  d e e t e y d e s s y ",
"d a a y y y y y d t e d e s y y f ! R &.  t d e d d y e e w e s ",
"d s w w e p d y t d s e y e e y f ~ L &.X y d y a s y t e d e d ",
"y e y y y y y y y y y y t e y y f ~ R &.  w e w a e y t y y t e ",
"6 9 9 9 9 5 9 5 9 3 9 8 5 0 3 9 0 k X.&.  6 3 3 3 9 8 8 9 9 9 9 ",
"O O @ O O O O O O O + $ @ + + + + O  .&.# O + O + O + + O O O O ",
"2 _ 1 < _ < < ) ) 2 _ 2 1 2 _ / _ _ O.#._ _ 1 < _ 1 _ _ 2 ) { 2 ",
"! ~ ~ ! ~ ~ W E E ~ ~ ~ ~ ~ ~ ~ ~ ! ~ ~ ~ ! ~ W ~ ~ ~ ! W K +.! ",
"m N m N n C ~ R | l N m N N N N N N N N N N N N m N m m ! K %.l ",
"d d y a d U ~ L } X s e p y d s y t d y e y y y s t t e ~ L &.  ",
"w e s t t M ! L ... y e e e e e w y e y y y y s y y e t ~ R *.  "
};
